<svg xmlns="http://www.w3.org/2000/svg" version="1.1" xmlns:xlink="http://www.w3.org/1999/xlink" xmlns:svgjs="http://svgjs.com/svgjs" width="1440" height="560" preserveAspectRatio="none" viewBox="0 0 1440 560"><g mask="url(&quot;#SvgjsMask1000&quot;)" fill="none"><rect width="1440" height="560" x="0" y="0" fill="#1e3266"></rect><path d="M1488 560L0 560 L0 294.34Q51.47 273.81, 72 325.28Q144.31 277.59, 192 349.9Q241.74 327.63, 264 377.37Q277.65 319.02, 336 332.67Q370.25 246.93, 456 281.18Q534.74 239.92, 576 318.66Q627.27 249.94, 696 301.21Q747.67 232.88, 816 284.56Q897.26 245.82, 936 327.08Q984.83 255.91, 1056 304.74Q1138.44 267.19, 1176 349.63Q1230.64 284.27, 1296 338.91Q1302.86 273.76, 1368 280.62Q1433.57 226.19, 1488 291.75z" fill="#182f5d"></path><path d="M1536 560L0 560 L0 352.9Q53.06 333.95, 72 387.01Q102.14 345.15, 144 375.3Q196.03 307.33, 264 359.35Q359.58 334.93, 384 430.51Q431.08 357.59, 504 404.67Q516.42 345.09, 576 357.51Q621.73 331.24, 648 376.97Q700.01 356.99, 720 409Q770.49 339.49, 840 389.98Q880.88 310.86, 960 351.73Q1004.24 323.97, 1032 368.21Q1100.6 364.8, 1104 433.4Q1142.78 352.18, 1224 390.96Q1248.96 343.92, 1296 368.88Q1384.94 337.82, 1416 426.77Q1455.6 346.37, 1536 385.96z" fill="#25467d"></path><path d="M1488 560L0 560 L0 427.02Q49.2 404.22, 72 453.42Q142.97 404.39, 192 475.37Q258.38 421.75, 312 488.13Q339.23 395.36, 432 422.59Q514.25 384.84, 552 467.09Q598.81 441.89, 624 488.7Q633.4 426.1, 696 435.49Q724.98 392.47, 768 421.44Q869.86 403.3, 888 505.16Q916.13 413.29, 1008 441.41Q1089.01 402.43, 1128 483.44Q1195.65 431.1, 1248 498.75Q1287.96 418.71, 1368 458.67Q1422.96 393.63, 1488 448.59z" fill="#356cb1"></path><path d="M1512 560L0 560 L0 528.06Q58.13 466.19, 120 524.33Q148.66 480.99, 192 509.65Q222.99 468.63, 264 499.62Q340.19 455.81, 384 531.99Q437.94 465.93, 504 519.88Q567.76 511.64, 576 575.4Q593.16 520.56, 648 537.71Q697.35 515.06, 720 564.4Q743.04 467.44, 840 490.49Q905.77 436.26, 960 502.04Q1036.38 458.41, 1080 534.79Q1124.91 507.7, 1152 552.62Q1186.25 466.87, 1272 501.11Q1343.05 452.16, 1392 523.21Q1460.68 471.89, 1512 540.58z" fill="white"></path></g><defs><mask id="SvgjsMask1000"><rect width="1440" height="560" fill="#ffffff"></rect></mask></defs></svg>